<svg width="20" height="20" viewBox="0 0 20 20" fill="none" xmlns="http://www.w3.org/2000/svg">
<path d="M14.5912 15.2842C13.8958 13.4242 12.1025 12.1 10 12.1C7.89746 12.1 6.10422 13.4242 5.40882 15.2842M14.5912 15.2842C16.067 14.0008 17 12.1094 17 10C17 6.13401 13.866 3 10 3C6.13401 3 3 6.13401 3 10C3 12.1094 3.93299 14.0008 5.40882 15.2842M14.5912 15.2842C13.3621 16.3529 11.7566 17 10 17C8.24336 17 6.63786 16.3529 5.40882 15.2842M12.1 7.9C12.1 9.0598 11.1598 10 10 10C8.8402 10 7.9 9.0598 7.9 7.9C7.9 6.7402 8.8402 5.8 10 5.8C11.1598 5.8 12.1 6.7402 12.1 7.9Z" stroke="black" stroke-linejoin="round"/>
</svg>
