<svg width="116" height="46" viewBox="0 0 116 46" fill="none" xmlns="http://www.w3.org/2000/svg">
<path d="M16.4881 11.0954C18.0782 10.0205 20.2368 10.4409 21.3092 12.0345L22.0789 13.1785H31.8257C34.0888 13.1785 35.9234 15.0173 35.9235 17.2855V20.2321C35.9234 22.5004 34.0888 24.3392 31.8257 24.3392L32.0366 24.3447C34.2017 24.4547 35.9234 26.2489 35.9235 28.4462V31.3929C35.9234 33.6611 34.0888 35.4999 31.8257 35.4999H21.4919C19.5659 35.4999 17.951 34.1679 17.5124 32.373C17.1975 34.1501 15.6498 35.4998 13.7863 35.4999C11.6953 35.4999 10 33.8008 10 31.7051C10.0001 29.6095 11.6953 27.9107 13.7863 27.9107C15.4766 27.9108 16.9076 29.0211 17.3941 30.5537V18.6657L15.5511 15.9274C14.4786 14.3338 14.8981 12.1703 16.4881 11.0954ZM28.8436 16.75V20.7677H30.9813C31.7685 20.7677 32.4066 20.1283 32.4067 19.3394V18.1786C32.4067 17.3896 31.7685 16.75 30.9813 16.75H28.8436Z" fill="#6B66F4"/>
<path d="M55.3473 19.4931C59.7855 19.4932 63.3834 23.0403 63.3834 27.4158C63.3833 31.7913 59.7855 35.3385 55.3473 35.3385C50.9089 35.3385 47.3108 31.7914 47.3107 27.4158C47.3107 23.0402 50.9089 19.4931 55.3473 19.4931ZM55.3473 23.358C53.185 23.358 51.4321 25.1747 51.4321 27.4158C51.4321 29.657 53.185 31.4737 55.3473 31.4737C57.5095 31.4736 59.2624 29.6569 59.2624 27.4158C59.2624 25.1747 57.5095 23.3581 55.3473 23.358Z" fill="#6B66F4"/>
<path fill-rule="evenodd" clip-rule="evenodd" d="M86.4015 19.6545C90.8398 19.6546 94.4376 23.2017 94.4376 27.5772C94.4376 27.9266 94.4146 28.2707 94.3701 28.6081C94.3453 28.7947 94.1834 28.9298 93.9956 28.9298H82.7104C83.2479 30.5057 84.697 31.635 86.4015 31.635C87.5809 31.635 88.6375 31.0938 89.3552 30.2387C89.4328 30.1463 89.5459 30.0891 89.6664 30.0891H93.4849C93.7497 30.0891 93.9358 30.3503 93.8334 30.5951C92.6295 33.4736 89.7558 35.4999 86.4015 35.4999C81.9632 35.4999 78.365 31.9528 78.365 27.5772C78.365 23.2016 81.9632 19.6545 86.4015 19.6545ZM86.4015 23.5194C84.6567 23.5194 83.1792 24.7025 82.6734 26.3368H90.1296C89.6238 24.7025 88.1463 23.5194 86.4015 23.5194Z" fill="#6B66F4"/>
<path d="M64.7124 17.789C64.7124 17.1468 65.2318 16.6262 65.8726 16.6262H67.8061C68.4468 16.6262 68.9662 17.1468 68.9662 17.789V19.7268C68.9662 20.369 68.4468 20.8896 67.8061 20.8896H65.8726C65.2318 20.8896 64.7124 20.369 64.7124 19.7268V17.789Z" fill="#6B66F4"/>
<path d="M64.7124 29.0287C64.7124 28.3865 65.2318 27.8659 65.8726 27.8659H67.8061C68.4468 27.8659 68.9662 28.3865 68.9662 29.0287V30.9665C68.9662 31.6087 68.4468 32.1293 67.8061 32.1293H65.8726C65.2318 32.1293 64.7124 31.6087 64.7124 30.9665V29.0287Z" fill="#6B66F4"/>
<path d="M42.6289 12.5568C43.6204 12.5568 44.4244 13.3625 44.4244 14.3563V31.0011L44.5399 31.0043C45.7256 31.0646 46.6685 32.0473 46.6685 33.2508C46.6684 34.4929 45.6637 35.5 44.4244 35.5H43.5266C41.2956 35.5 39.487 33.6873 39.4869 31.4512V14.3563C39.4869 13.3625 40.2909 12.5568 41.2824 12.5568H42.6289Z" fill="#6B66F4"/>
<path d="M74.4215 12.5568C75.413 12.5568 76.217 13.3625 76.217 14.3563V31.0011L76.3325 31.0043C77.5182 31.0646 78.4611 32.0473 78.4611 33.2508C78.461 34.4929 77.4564 35.5 76.217 35.5H75.3192C73.0882 35.5 71.2796 33.6873 71.2796 31.4512V14.3563C71.2796 13.3625 72.0835 12.5568 73.075 12.5568H74.4215Z" fill="#6B66F4"/>
<path d="M100.601 15.6902C101.453 15.6902 102.144 16.3823 102.144 17.2361V31.5356H104.072C105.137 31.5356 106 32.4007 106 33.4679C106 34.5351 105.137 35.4001 104.072 35.4001H101.373C99.4559 35.4001 97.9022 33.8429 97.9022 31.9219V17.2361C97.9022 16.3823 98.5928 15.6902 99.4447 15.6902H100.601Z" fill="#6B66F4"/>
<path d="M94.5245 22.2603C94.5245 21.4065 95.215 20.7144 96.0669 20.7144H104.165C105.016 20.7144 105.707 21.4065 105.707 22.2603V22.6468C105.707 23.5006 105.016 24.1927 104.165 24.1927H96.0669C95.215 24.1927 94.5245 23.5006 94.5245 22.6468V22.2603Z" fill="#6B66F4"/>
</svg>
