<svg width="20" height="20" viewBox="0 0 20 20" fill="none" xmlns="http://www.w3.org/2000/svg">
<path d="M7.2 13L7.95757 11.6472C8.40454 10.849 9.4573 10.7732 10 11.5C10.5427 12.2268 11.5955 12.151 12.0424 11.3528L12.8 10M4.4 7H15.6C16.3732 7 17 6.32843 17 5.5C17 4.67157 16.3732 4 15.6 4H4.4C3.6268 4 3 4.67157 3 5.5C3 6.32843 3.6268 7 4.4 7ZM3.7 7H16.3V14.5C16.3 15.3284 15.6732 16 14.9 16H5.1C4.3268 16 3.7 15.3284 3.7 14.5V7Z" stroke="black" stroke-linecap="round" stroke-linejoin="round"/>
</svg>
