<svg width="16" height="16" viewBox="0 0 16 16" fill="none" xmlns="http://www.w3.org/2000/svg">
<path d="M6.16823 14H13M8.18961 3.54114C8.18961 3.54114 8.18961 4.63089 9.27936 5.72064C10.3691 6.81039 11.4589 6.81039 11.4589 6.81039M3.87975 11.992L6.16823 11.6651C6.49833 11.618 6.80424 11.465 7.04003 11.2292L12.5486 5.72064C13.1505 5.11879 13.1505 4.14299 12.5486 3.54114L11.4589 2.45139C10.857 1.84954 9.88121 1.84954 9.27936 2.45139L3.77078 7.95997C3.53499 8.19576 3.38203 8.50167 3.33488 8.83177L3.00795 11.1202C2.9353 11.6288 3.3712 12.0647 3.87975 11.992Z" stroke="black" stroke-linecap="round"/>
</svg>
