<svg width="25" height="24" viewBox="0 0 25 24" fill="none" xmlns="http://www.w3.org/2000/svg">
<path d="M13.1797 3H7.17969C6.07512 3 5.17969 3.89543 5.17969 5V19C5.17969 20.1046 6.07512 21 7.17969 21H17.1797C18.2843 21 19.1797 20.1046 19.1797 19V9M13.1797 3V7C13.1797 8.10457 14.0751 9 15.1797 9H19.1797M13.1797 3H13.3513C13.8817 3 14.3904 3.21071 14.7655 3.58579L18.5939 7.41421C18.969 7.78929 19.1797 8.29799 19.1797 8.82843V9M12.1797 17V15M12.1797 15V13M12.1797 15H14.1797M12.1797 15H10.1797" stroke="black" stroke-width="1.5" stroke-linecap="round" stroke-linejoin="round"/>
</svg>
