<svg width="20" height="20" viewBox="0 0 20 20" fill="none" xmlns="http://www.w3.org/2000/svg">
<path d="M13.625 8.25064L12.4937 9.38192C12.152 9.72363 12.152 10.2776 12.4937 10.6194L13.625 11.7506M12.75 10.0006L18 10.0006M4 14.3756V5.62562M14.5 14.3756C14.5 15.3421 13.7165 16.1256 12.75 16.1256H9.25M14.5 5.62562C14.5 4.65912 13.7165 3.87562 12.75 3.87562H9.25M4.77927 16.6451L6.52928 17.8118C7.69225 18.5871 9.25 17.7534 9.25 16.3557V3.64552C9.25 2.2478 7.69225 1.41412 6.52928 2.18943L4.77927 3.3561C4.29243 3.68066 4 4.22707 4 4.81219V15.189C4 15.7742 4.29243 16.3206 4.77927 16.6451Z" stroke="black" stroke-linecap="round"/>
</svg>
