<svg width="40" height="40" viewBox="0 0 40 40" fill="none" xmlns="http://www.w3.org/2000/svg">
<path d="M36.6663 23.334L31.768 19.8072C29.2227 17.9745 25.7442 18.164 23.4129 20.2621L16.5865 26.4059C14.2552 28.504 10.7767 28.6934 8.23135 26.8608L3.33301 23.334M9.99967 36.6673H29.9997C33.6816 36.6673 36.6663 33.6825 36.6663 30.0007V10.0007C36.6663 6.31875 33.6816 3.33398 29.9997 3.33398H9.99967C6.31778 3.33398 3.33301 6.31875 3.33301 10.0007V30.0007C3.33301 33.6825 6.31778 36.6673 9.99967 36.6673ZM18.333 14.1673C18.333 16.4685 16.4675 18.334 14.1663 18.334C11.8652 18.334 9.99967 16.4685 9.99967 14.1673C9.99967 11.8661 11.8652 10.0007 14.1663 10.0007C16.4675 10.0007 18.333 11.8661 18.333 14.1673Z" stroke="#28303F" stroke-width="1.5" stroke-linecap="round"/>
</svg>
