<svg width="20" height="20" viewBox="0 0 20 20" fill="none" xmlns="http://www.w3.org/2000/svg">
<path d="M8 17.25C8 16.8139 7.72519 16.3165 7.30762 16.2559L7.22168 16.25V15.25C7.87355 15.25 8.33978 15.6293 8.60059 15.9961C8.82685 16.3144 8.9627 16.7013 8.99316 17.0859L9 17.25C9 17.8023 9.44772 18.25 10 18.25V19.25C8.89543 19.25 8 18.3546 8 17.25ZM11 17.25C11 16.8129 11.1409 16.3597 11.3994 15.9961C11.6602 15.6293 12.1264 15.25 12.7783 15.25V16.25L12.6924 16.2559C12.2748 16.3165 12 16.8139 12 17.25C12 18.3546 11.1046 19.25 10 19.25V18.25C10.5177 18.25 10.9438 17.8567 10.9951 17.3525L11 17.25ZM15.3828 15.25V16.25H12.7783V15.25H15.3828ZM7.22168 15.25V16.25H4.61719L4.61719 15.25H7.22168ZM16.9941 7.44238C16.9352 7.85327 16.4504 8.125 16.0215 8.125C14.9171 8.12521 14.0215 9.02056 14.0215 10.125C14.0215 11.2294 14.9171 12.1248 16.0215 12.125C16.4789 12.125 16.9997 12.4333 17 12.8906V14.6328L16.9912 14.7979C16.914 15.5592 16.3092 16.164 15.5479 16.2412L15.3828 16.25V15.25C15.7237 15.25 16 14.9737 16 14.6328V13.124C14.4051 13.1126 13.1054 11.8574 13.0254 10.2793L13.0215 10.125C13.0215 8.47519 14.3535 7.13676 16 7.125V5.77441C15.9998 5.48487 15.7651 5.25019 15.4756 5.25H12.9102C12.1675 5.2498 11.6711 4.76955 11.4141 4.37598C11.1833 4.02261 11.0392 3.59402 11.0068 3.17773L11 3C11 2.48232 10.6067 2.05621 10.1025 2.00488L10 2C9.48232 2 9.05621 2.39333 9.00488 2.89746L9 3C9 3.46988 8.84972 3.97204 8.58594 4.37598C8.32887 4.76955 7.83249 5.2498 7.08984 5.25L4.52441 5.25C4.23488 5.2502 4.0002 5.48488 4 5.77441V7.125C5.59489 7.13639 6.89464 8.39254 6.97461 9.9707L6.97852 10.125C6.97847 11.7747 5.64655 13.1123 4 13.124V14.6328C4 14.9737 4.27633 15.25 4.61719 15.25L4.61719 16.25L4.45215 16.2412C3.69082 16.164 3.08598 15.5592 3.00879 14.7979L3 14.6328L3 12.8906C3.0003 12.4333 3.52108 12.125 3.97852 12.125C5.08289 12.1248 5.97848 11.2294 5.97852 10.125C5.97852 9.02056 5.08291 8.12521 3.97852 8.125C3.54964 8.125 3.06483 7.85328 3.00586 7.44238L3 7.3584V5.77441C3.00019 4.98501 3.60025 4.33576 4.36914 4.25781L4.52441 4.25H7.08984L7.18945 4.24219C7.64528 4.16779 7.9567 3.59415 7.99609 3.10352L8 3C8 1.89543 8.89543 1 10 1L10.2041 1.01074C11.2128 1.113 12 1.96435 12 3L12.0039 3.10352C12.0433 3.59415 12.3547 4.16779 12.8105 4.24219L12.9102 4.25H15.4756C16.3174 4.25019 16.9998 4.93259 17 5.77441V7.3584L16.9941 7.44238Z" fill="black"/>
</svg>
