<svg width="20" height="20" viewBox="0 0 20 20" fill="none" xmlns="http://www.w3.org/2000/svg">
<path d="M17 10V14.2C17 15.7464 15.7464 17 14.2 17H5.8C4.2536 17 3 15.7464 3 14.2V5.8C3 4.2536 4.2536 3 5.8 3H10M12.5805 4.41592C12.5805 4.41592 12.5805 5.41713 13.5817 6.41834C14.5829 7.41955 15.5841 7.41955 15.5841 7.41955M8.00827 12.7927L10.1108 12.4923C10.4141 12.449 10.6951 12.3085 10.9118 12.0919L16.5853 6.41834C17.1382 5.86539 17.1382 4.96887 16.5853 4.41592L15.5841 3.41471C15.0311 2.86176 14.1346 2.86176 13.5817 3.41471L7.90815 9.08823C7.69152 9.30486 7.55099 9.58591 7.50767 9.88919L7.2073 11.9917C7.14056 12.459 7.54104 12.8594 8.00827 12.7927Z" stroke="black" stroke-linecap="round"/>
</svg>
