<svg width="20" height="20" viewBox="0 0 20 20" fill="none" xmlns="http://www.w3.org/2000/svg">
<path d="M16 9.77778H4.44444M16 9.77778C16.7977 9.77778 17.4444 10.4245 17.4444 11.2222V14.1111C17.4444 15.7066 16.151 17 14.5556 17H5.88889C4.2934 17 3 15.7066 3 14.1111V11.2222C3 10.4245 3.6467 9.77778 4.44444 9.77778M16 9.77778V8.33333C16 7.53559 15.3533 6.88889 14.5556 6.88889M4.44444 9.77778V8.33333C4.44444 7.53559 5.09114 6.88889 5.88889 6.88889M14.5556 6.88889H5.88889M14.5556 6.88889V5.44444C14.5556 4.6467 13.9089 4 13.1111 4H7.33333C6.53559 4 5.88889 4.6467 5.88889 5.44444V6.88889M8.77778 11.9444H11.6667" stroke="black" stroke-linecap="round"/>
</svg>
