<svg width="20" height="20" viewBox="0 0 20 20" fill="none" xmlns="http://www.w3.org/2000/svg">
<path d="M16.8008 12.8938L16.3744 12.6327L16.3744 12.6327L16.8008 12.8938ZM16.0584 14.1062L16.4848 14.3673H16.4848L16.0584 14.1062ZM3.19918 7.10621L2.77277 6.8451L2.77277 6.84511L3.19918 7.10621ZM3.94161 5.89378L4.36802 6.15488L3.94161 5.89378ZM5.96996 5.38134L6.20901 4.94219L6.20901 4.94219L5.96996 5.38134ZM3.74268 9.01865L3.50362 9.4578L3.50362 9.4578L3.74268 9.01865ZM14.03 14.6186L13.791 15.0578L13.791 15.0578L14.03 14.6186ZM16.2573 10.9813L16.0183 11.4205L16.2573 10.9813ZM3.94161 14.1062L3.5152 14.3673H3.5152L3.94161 14.1062ZM3.19918 12.8938L3.62559 12.6327L3.62559 12.6327L3.19918 12.8938ZM16.0584 5.89379L16.4848 5.63268L16.4848 5.63268L16.0584 5.89379ZM16.8008 7.10622L16.3744 7.36733L16.3744 7.36733L16.8008 7.10622ZM16.2573 9.01866L16.4964 9.45781L16.4964 9.45781L16.2573 9.01866ZM14.03 5.38135L14.2691 5.8205L14.2691 5.8205L14.03 5.38135ZM3.74267 10.9814L3.98173 11.4205H3.98173L3.74267 10.9814ZM5.96996 14.6187L5.7309 14.1795L5.7309 14.1795L5.96996 14.6187ZM13.9511 5.42432L13.7121 4.98517L13.7121 4.98517L13.9511 5.42432ZM6.04889 5.42431L5.80983 5.86346L5.80983 5.86346L6.04889 5.42431ZM13.9511 14.5757L14.1902 14.1365L14.1902 14.1365L13.9511 14.5757ZM6.04889 14.5757L6.28794 15.0148L6.28794 15.0148L6.04889 14.5757ZM9.25757 3V3.5H10.7424V3V2.5H9.25757V3ZM10.7424 17V16.5H9.25757V17V17.5H10.7424V17ZM9.25757 17V16.5C8.68553 16.5 8.27272 16.0697 8.27272 15.6H7.77272H7.27272C7.27272 16.6767 8.1895 17.5 9.25757 17.5V17ZM12.2273 15.6H11.7273C11.7273 16.0697 11.3145 16.5 10.7424 16.5V17V17.5C11.8105 17.5 12.7273 16.6767 12.7273 15.6H12.2273ZM10.7424 3V3.5C11.3145 3.5 11.7273 3.93026 11.7273 4.4H12.2273H12.7273C12.7273 3.32335 11.8105 2.5 10.7424 2.5V3ZM9.25757 3V2.5C8.1895 2.5 7.27272 3.32335 7.27272 4.4H7.77272H8.27272C8.27272 3.93026 8.68553 3.5 9.25757 3.5V3ZM16.8008 12.8938L16.3744 12.6327L15.632 13.8451L16.0584 14.1062L16.4848 14.3673L17.2272 13.1549L16.8008 12.8938ZM3.19918 7.10621L3.62559 7.36732L4.36802 6.15488L3.94161 5.89378L3.5152 5.63267L2.77277 6.8451L3.19918 7.10621ZM3.94161 5.89378L4.36802 6.15488C4.63235 5.72321 5.24319 5.555 5.7309 5.82049L5.96996 5.38134L6.20901 4.94219C5.27634 4.43448 4.07093 4.72513 3.5152 5.63267L3.94161 5.89378ZM3.74268 9.01865L3.98173 8.5795C3.50961 8.3225 3.37274 7.78023 3.62559 7.36732L3.19918 7.10621L2.77277 6.84511C2.20556 7.77141 2.55535 8.9416 3.50362 9.4578L3.74268 9.01865ZM16.0584 14.1062L15.632 13.8451C15.3677 14.2768 14.7568 14.445 14.2691 14.1795L14.03 14.6186L13.791 15.0578C14.7237 15.5655 15.9291 15.2749 16.4848 14.3673L16.0584 14.1062ZM16.8008 12.8938L17.2272 13.1549C17.7944 12.2286 17.4447 11.0584 16.4964 10.5422L16.2573 10.9813L16.0183 11.4205C16.4904 11.6775 16.6273 12.2198 16.3744 12.6327L16.8008 12.8938ZM3.94161 14.1062L4.36801 13.8451L3.62559 12.6327L3.19918 12.8938L2.77277 13.1549L3.5152 14.3673L3.94161 14.1062ZM16.0584 5.89379L15.632 6.15489L16.3744 7.36733L16.8008 7.10622L17.2272 6.84512L16.4848 5.63268L16.0584 5.89379ZM16.8008 7.10622L16.3744 7.36733C16.6273 7.78024 16.4904 8.32251 16.0183 8.57951L16.2573 9.01866L16.4964 9.45781C17.4447 8.94161 17.7944 7.77142 17.2272 6.84512L16.8008 7.10622ZM14.03 5.38135L14.2691 5.8205C14.7568 5.55501 15.3677 5.72322 15.632 6.1549L16.0584 5.89379L16.4848 5.63268C15.9291 4.72514 14.7237 4.43449 13.791 4.9422L14.03 5.38135ZM3.19918 12.8938L3.62559 12.6327C3.37274 12.2198 3.50961 11.6775 3.98173 11.4205L3.74267 10.9814L3.50362 10.5422C2.55535 11.0584 2.20556 12.2286 2.77277 13.1549L3.19918 12.8938ZM3.94161 14.1062L3.5152 14.3673C4.07093 15.2749 5.27634 15.5655 6.20901 15.0578L5.96996 14.6187L5.7309 14.1795C5.24319 14.445 4.63235 14.2768 4.36801 13.8451L3.94161 14.1062ZM13.9511 5.42432L14.1902 5.86347L14.2691 5.8205L14.03 5.38135L13.791 4.9422L13.7121 4.98517L13.9511 5.42432ZM5.96996 5.38134L5.7309 5.82049L5.80983 5.86346L6.04889 5.42431L6.28794 4.98516L6.20901 4.94219L5.96996 5.38134ZM14.03 14.6186L14.2691 14.1795L14.1902 14.1365L13.9511 14.5757L13.7121 15.0148L13.791 15.0578L14.03 14.6186ZM6.04889 14.5757L5.80984 14.1365L5.7309 14.1795L5.96996 14.6187L6.20901 15.0578L6.28794 15.0148L6.04889 14.5757ZM3.74268 9.01865L3.50362 9.4578C3.93319 9.69164 3.93319 10.3084 3.50362 10.5422L3.74267 10.9814L3.98173 11.4205C5.10715 10.8079 5.10716 9.19213 3.98173 8.5795L3.74268 9.01865ZM6.04889 14.5757L6.28794 15.0148C6.7319 14.7732 7.27272 15.0945 7.27272 15.6H7.77272H8.27272C8.27272 14.3358 6.92014 13.5321 5.80983 14.1365L6.04889 14.5757ZM12.2273 15.6H12.7273C12.7273 15.0945 13.2681 14.7732 13.7121 15.0148L13.9511 14.5757L14.1902 14.1365C13.0799 13.5321 11.7273 14.3358 11.7273 15.6H12.2273ZM16.2573 10.9813L16.4964 10.5422C16.0668 10.3084 16.0668 9.69164 16.4964 9.45781L16.2573 9.01866L16.0183 8.57951C14.8929 9.19214 14.8929 10.8079 16.0183 11.4205L16.2573 10.9813ZM6.04889 5.42431L5.80983 5.86346C6.92014 6.46786 8.27272 5.66415 8.27272 4.4H7.77272H7.27272C7.27272 4.90547 6.7319 5.22683 6.28794 4.98516L6.04889 5.42431ZM13.9511 5.42432L13.7121 4.98517C13.2681 5.22684 12.7273 4.90547 12.7273 4.4H12.2273H11.7273C11.7273 5.66416 13.0799 6.46787 14.1902 5.86347L13.9511 5.42432ZM12.3333 10H11.8333C11.8333 11.0125 11.0125 11.8333 10 11.8333V12.3333V12.8333C11.5648 12.8333 12.8333 11.5648 12.8333 10H12.3333ZM10 12.3333V11.8333C8.98748 11.8333 8.16667 11.0125 8.16667 10H7.66667H7.16667C7.16667 11.5648 8.4352 12.8333 10 12.8333V12.3333ZM7.66667 10H8.16667C8.16667 8.98748 8.98748 8.16667 10 8.16667V7.66667V7.16667C8.4352 7.16667 7.16667 8.43519 7.16667 10H7.66667ZM10 7.66667V8.16667C11.0125 8.16667 11.8333 8.98748 11.8333 10H12.3333H12.8333C12.8333 8.43519 11.5648 7.16667 10 7.16667V7.66667Z" fill="black"/>
</svg>
