<svg width="20" height="20" viewBox="0 0 20 20" fill="none" xmlns="http://www.w3.org/2000/svg">
<path d="M10 11.6C10.789 11.6 11.4286 10.8837 11.4286 10C11.4286 9.11634 10.789 8.4 10 8.4C9.21102 8.4 8.57143 9.11634 8.57143 10C8.57143 10.8837 9.21102 11.6 10 11.6ZM10 11.6V18M6.42857 5.2H13.5714C14.3604 5.2 15 4.48366 15 3.6C15 2.71634 14.3604 2 13.5714 2H6.42857C5.63959 2 5 2.71634 5 3.6C5 4.48366 5.63959 5.2 6.42857 5.2ZM6.42284 5.2H13.5772L14.8015 9.46254C15.1564 10.4663 15.0307 11.5849 14.4626 12.4775L10.6799 17.6208C10.3581 18.1264 9.64187 18.1264 9.3201 17.6208L5.53742 12.4775C4.96934 11.5849 4.84361 10.4663 5.19853 9.46254L6.42284 5.2Z" stroke="black"/>
</svg>
