<svg width="20" height="20" viewBox="0 0 20 20" fill="none" xmlns="http://www.w3.org/2000/svg">
<path d="M14.1465 2.5012C14.9671 2.49952 15.3783 3.49143 14.7988 4.07152L12.7998 6.07054C12.4871 6.38345 12.4874 6.89003 12.7988 7.2014C13.1111 7.5132 13.6175 7.51336 13.9297 7.2014L15.9287 5.20237L16.042 5.10472C16.6288 4.67581 17.5015 5.08523 17.5 5.85472V7.14769C17.4979 8.30451 17.4838 9.07277 17.4033 9.6262C17.3472 10.0116 17.2556 10.3251 17.0996 10.6116C16.9457 10.8941 16.7437 11.1228 16.5127 11.3537C15.9561 11.9102 15.1882 12.1406 14.3115 12.2463C13.4852 12.3459 12.4736 12.3427 11.3125 12.342L6.91114 16.7434C5.902 17.7523 4.26593 17.7524 3.25684 16.7434C2.24783 15.7343 2.24793 14.0982 3.25684 13.0891L7.65821 8.68773C7.65763 7.52696 7.65521 6.51532 7.75489 5.6887C7.86066 4.81206 8.09081 4.04409 8.64747 3.48753C8.87841 3.25666 9.10714 3.05445 9.38965 2.90062C9.67586 2.74491 9.98896 2.65397 10.374 2.59788C11.112 2.49054 12.2323 2.50023 14.1465 2.50023V2.5012ZM13.9551 3.50023C12.113 3.49987 11.1426 3.4964 10.5186 3.58714C10.213 3.63161 10.0219 3.69593 9.86817 3.77952C9.71063 3.8653 9.5613 3.98785 9.3545 4.19456C9.03488 4.51413 8.84342 5.01008 8.74708 5.80882C8.67471 6.40903 8.66059 7.1255 8.65821 7.98558V8.89476C8.65827 9.02272 8.60921 9.15062 8.51172 9.24827L3.96387 13.7961C3.34549 14.4148 3.34539 15.4178 3.96387 16.0364C4.58244 16.6548 5.58549 16.6547 6.20411 16.0364L10.752 11.4885C10.8493 11.3913 10.9769 11.3423 11.1045 11.342H12.0137C12.8743 11.3396 13.5912 11.3255 14.1914 11.2532C14.9899 11.1568 15.486 10.9662 15.8057 10.6467C16.0126 10.4398 16.1359 10.2906 16.2217 10.133C16.3053 9.97936 16.3686 9.78803 16.4131 9.48265C16.5039 8.85865 16.5004 7.888 16.5 6.04515L14.6367 7.90843C13.934 8.61083 12.7945 8.61072 12.0918 7.90843C11.3884 7.20509 11.3909 6.06552 12.0928 5.36351L13.9551 3.50023Z" fill="black"/>
</svg>
